<?xml version="1.0" encoding="UTF-8"?>
<!DOCTYPE svg PUBLIC "-//W3C//DTD SVG 1.1//EN" "http://www.w3.org/Graphics/SVG/1.1/DTD/svg11.dtd">
<svg xmlns="http://www.w3.org/2000/svg" version="1.1" width="704px" height="116px" style="shape-rendering:geometricPrecision; text-rendering:geometricPrecision; image-rendering:optimizeQuality; fill-rule:evenodd; clip-rule:evenodd" xmlns:xlink="http://www.w3.org/1999/xlink">
<g><path style="opacity:1" fill="#000000" d="M 265.5,86.5 C 267.071,84.3649 268.404,82.0316 269.5,79.5C 273.2,78.9431 274.867,76.7764 274.5,73C 273.432,63.4859 272.265,53.9859 271,44.5C 266.994,60.0146 262.494,75.3479 257.5,90.5C 255.033,90.7549 253.033,91.7549 251.5,93.5C 246.658,94.0428 241.825,94.7095 237,95.5C 236.167,95.1667 235.333,94.8333 234.5,94.5C 229.436,78.1415 224.269,61.8081 219,45.5C 217.656,56.1176 217.156,66.7842 217.5,77.5C 216.262,77.81 216.262,78.31 217.5,79C 219.066,79.765 220.399,79.5983 221.5,78.5C 222.15,78.8039 222.817,79.1373 223.5,79.5C 224.492,83.7828 224.826,88.1161 224.5,92.5C 213.833,92.5 203.167,92.5 192.5,92.5C 191.56,88.5369 191.393,84.5369 192,80.5C 193.667,79.1667 195.333,77.8333 197,76.5C 199.061,62.4702 201.227,48.4702 203.5,34.5C 205.974,31.8132 206.141,28.8132 204,25.5C 203.283,26.0442 202.783,26.7109 202.5,27.5C 200.219,26.3918 198.052,25.0585 196,23.5C 195.501,19.1794 195.334,14.8461 195.5,10.5C 207.851,10.1676 220.185,10.501 232.5,11.5C 237.682,28.568 243.016,45.568 248.5,62.5C 254.028,45.9153 259.361,29.2486 264.5,12.5C 266.766,11.6858 269.1,11.1858 271.5,11C 280.494,10.5002 289.494,10.3336 298.5,10.5C 298.669,15.1811 299.002,19.8478 299.5,24.5C 297.146,24.838 294.813,25.338 292.5,26C 291.941,26.7247 291.608,27.5581 291.5,28.5C 293.993,43.1155 296.159,57.7821 298,72.5C 299.173,76.3372 301.173,79.6706 304,82.5C 304.498,85.4816 304.665,88.4816 304.5,91.5C 292.181,92.4822 279.848,92.6489 267.5,92C 265.845,90.5557 265.178,88.7224 265.5,86.5 Z"/></g>
<g><path style="opacity:1" fill="#000000" d="M 394.5,13.5 C 397.238,13.8511 399.904,14.5178 402.5,15.5C 403.492,19.7828 403.826,24.1161 403.5,28.5C 410.167,28.5 416.833,28.5 423.5,28.5C 423.958,33.8659 423.291,39.0325 421.5,44C 415.509,44.4995 409.509,44.6662 403.5,44.5C 403.334,54.5056 403.5,64.5056 404,74.5C 404.75,75.1258 405.584,75.6258 406.5,76C 411.533,76.171 416.533,76.671 421.5,77.5C 423.224,81.635 423.557,85.8017 422.5,90C 411.746,94.8864 400.746,95.5531 389.5,92C 383.612,87.6764 380.778,81.8431 381,74.5C 380.5,64.5056 380.334,54.5056 380.5,44.5C 377.833,44.5 375.167,44.5 372.5,44.5C 372.335,40.8183 372.501,37.1516 373,33.5C 380.364,26.9671 387.53,20.3004 394.5,13.5 Z"/></g>
<g><path style="opacity:0.977" fill="#ffa524" d="M 75.5,88.5 C 75.5,89.5 75.5,90.5 75.5,91.5C 68.1396,108.133 55.8063,112.966 38.5,106C 37.6195,105.292 36.9528,104.458 36.5,103.5C 36.3059,101.088 34.9726,100.088 32.5,100.5C 29.2225,96.8502 27.3892,92.5168 27,87.5C 26.6667,73.1667 26.3333,58.8333 26,44.5C 21.7754,37.6417 16.7754,36.9751 11,42.5C 11.1594,32.0603 16.3261,25.227 26.5,22C 42.4288,19.0443 52.9288,25.211 58,40.5C 58.2834,56.1846 58.95,71.8512 60,87.5C 64.6127,93.3486 69.7793,93.6819 75.5,88.5 Z"/></g>
<g><path style="opacity:0.965" fill="#fe1b6d" d="M 107.5,40.5 C 107.5,41.1667 107.5,41.8333 107.5,42.5C 107.333,57.1705 107.5,71.8371 108,86.5C 112.426,93.484 117.593,94.1507 123.5,88.5C 123.833,89.1667 124.167,89.8333 124.5,90.5C 121.26,102.792 113.26,108.792 100.5,108.5C 88.1853,108.521 79.852,102.854 75.5,91.5C 75.5,90.5 75.5,89.5 75.5,88.5C 75.6666,74.1628 75.4999,59.8295 75,45.5C 71.2714,37.6024 66.2714,36.6024 60,42.5C 59.7215,33.2378 63.8881,26.7378 72.5,23C 89.3671,18.7667 101.034,24.6 107.5,40.5 Z"/></g>
<g><path style="opacity:0.979" fill="#a72dbb" d="M 125.5,90.5 C 126.954,88.7367 126.62,87.4033 124.5,86.5C 124.667,72.8293 124.5,59.1626 124,45.5C 122.143,39.8216 118.309,37.655 112.5,39C 111.154,40.6692 109.487,41.8358 107.5,42.5C 107.5,41.8333 107.5,41.1667 107.5,40.5C 112.729,24.2317 123.729,18.3983 140.5,23C 147.333,25.8333 152.167,30.6667 155,37.5C 156.01,53.8184 156.676,70.1517 157,86.5C 161.485,94.0349 166.485,94.3683 172,87.5C 172.691,96.612 168.858,103.112 160.5,107C 148.362,110.944 137.862,108.444 129,99.5C 127.336,96.6729 126.17,93.6729 125.5,90.5 Z"/></g>
<g><path style="opacity:1" fill="#000000" d="M 553.5,41.5 C 552.07,43.4547 552.403,45.1214 554.5,46.5C 557.464,57.2829 556.964,67.9495 553,78.5C 546.062,89.3059 536.062,94.6393 523,94.5C 502.361,94.194 492.195,83.694 492.5,63C 494.044,36.243 508.044,24.5763 534.5,28C 543.215,29.2245 549.549,33.7245 553.5,41.5 Z M 529.5,78.5 C 523.789,79.1654 519.456,77.1654 516.5,72.5C 513.935,63.497 513.935,54.497 516.5,45.5C 526.446,41.3934 532.279,44.7268 534,55.5C 534.664,62.5414 534.331,69.5414 533,76.5C 531.887,77.305 530.721,77.9717 529.5,78.5 Z"/></g>
<g><path style="opacity:0.705" fill="#a3a3a3" d="M 203.5,34.5 C 203.552,32.0971 203.219,29.7638 202.5,27.5C 202.783,26.7109 203.283,26.0442 204,25.5C 206.141,28.8132 205.974,31.8132 203.5,34.5 Z"/></g>
<g><path style="opacity:1" fill="#000000" d="M 371.5,81.5 C 371.793,84.7543 371.126,87.7543 369.5,90.5C 363.321,92.3974 356.988,93.2308 350.5,93C 349.44,91.702 348.274,90.5353 347,89.5C 339.228,93.0544 331.061,94.3877 322.5,93.5C 321.492,91.6614 319.992,90.3281 318,89.5C 317.283,90.0442 316.783,90.7109 316.5,91.5C 309.883,86.4421 307.716,79.7754 310,71.5C 312.986,65.18 317.819,61.0133 324.5,59C 331.728,57.1342 339.062,55.9675 346.5,55.5C 345.347,44.615 339.681,41.4483 329.5,46C 328.084,48.8349 326.417,51.5015 324.5,54C 321.132,54.5428 317.799,54.3761 314.5,53.5C 312.6,46.2202 311.933,38.8869 312.5,31.5C 326.652,27.4531 340.986,26.6198 355.5,29C 360,30.8333 363.167,34 365,38.5C 366.254,51.1107 366.921,63.7774 367,76.5C 368.707,78.0375 370.207,79.7041 371.5,81.5 Z M 332.5,78.5 C 331.833,77.1667 330.833,76.1667 329.5,75.5C 329.357,73.7376 329.691,72.0709 330.5,70.5C 335.71,68.9122 341.043,68.2455 346.5,68.5C 346.813,71.2469 346.48,73.9135 345.5,76.5C 341.313,78.0653 336.98,78.7319 332.5,78.5 Z"/></g>
<g><path style="opacity:1" fill="#000000" d="M 485.5,52.5 C 485.076,56.1971 483.742,59.5305 481.5,62.5C 471.25,64.1812 461.25,66.6812 451.5,70C 455.6,76.067 461.266,78.067 468.5,76C 472.728,74.5877 477.061,73.7544 481.5,73.5C 481.844,77.0532 482.511,80.5532 483.5,84C 483.097,85.4728 482.43,86.8061 481.5,88C 466.998,96.2093 452.331,96.5426 437.5,89C 422.571,70.1191 422.904,51.4524 438.5,33C 450.626,26.0148 462.959,25.6815 475.5,32C 481.91,37.32 485.243,44.1534 485.5,52.5 Z M 452.5,43.5 C 456.607,43.1229 460.274,44.1229 463.5,46.5C 464.881,48.2741 464.548,49.7741 462.5,51C 458.494,52.1679 454.494,53.3345 450.5,54.5C 449.353,52.2351 449.186,49.9018 450,47.5C 450.2,45.6803 451.034,44.347 452.5,43.5 Z"/></g>
<g><path style="opacity:1" fill="#000000" d="M 581.5,27.5 C 583.181,29.0075 585.181,30.0075 587.5,30.5C 588.315,31.4293 589.148,32.4293 590,33.5C 593.311,31.0969 596.811,29.0969 600.5,27.5C 602.102,29.0739 604.102,29.7406 606.5,29.5C 606.171,32.2282 606.837,34.5615 608.5,36.5C 608.634,38.2915 608.301,39.9582 607.5,41.5C 605.896,42.287 605.229,43.6203 605.5,45.5C 601.183,45.0834 597.183,45.7501 593.5,47.5C 592.504,47.4142 591.671,47.7476 591,48.5C 590.333,58.1667 590.333,67.8333 591,77.5C 593.498,79.417 596.165,81.0836 599,82.5C 599.498,85.8168 599.665,89.1501 599.5,92.5C 586.833,92.5 574.167,92.5 561.5,92.5C 560.8,88.2022 560.467,83.8689 560.5,79.5C 562.827,79.3354 564.993,78.6687 567,77.5C 567.844,66.7888 567.511,56.1221 566,45.5C 563.929,44.8971 562.762,43.5638 562.5,41.5C 562.938,41.5654 563.272,41.3988 563.5,41C 562.872,38.0614 562.205,35.2281 561.5,32.5C 567.811,29.9221 574.478,28.2554 581.5,27.5 Z"/></g>
<g><path style="opacity:0.388" fill="#9c9c9c" d="M 581.5,27.5 C 584.393,27.0311 586.393,28.0311 587.5,30.5C 585.181,30.0075 583.181,29.0075 581.5,27.5 Z"/></g>
<g><path style="opacity:0.468" fill="#939393" d="M 600.5,27.5 C 603.167,27.5 605.833,27.5 608.5,27.5C 608.5,30.5 608.5,33.5 608.5,36.5C 606.837,34.5615 606.171,32.2282 606.5,29.5C 604.102,29.7406 602.102,29.0739 600.5,27.5 Z"/></g>
<g><path style="opacity:1" fill="#000000" d="M 645.5,32.5 C 643.989,35.0051 642.655,37.6717 641.5,40.5C 641.082,41.2216 640.416,41.7216 639.5,42C 642.324,50.4726 645.158,58.9726 648,67.5C 651.371,59.2601 654.871,51.0935 658.5,43C 656.63,41.6338 654.63,40.4672 652.5,39.5C 651.334,37.8327 651.334,36.166 652.5,34.5C 654.104,33.713 654.771,32.3797 654.5,30.5C 661.508,30.3337 668.508,30.5004 675.5,31C 676.066,31.9947 676.733,32.828 677.5,33.5C 678.783,36.843 678.616,40.1763 677,43.5C 665.953,67.9269 654.12,91.9269 641.5,115.5C 637.5,115.5 633.5,115.5 629.5,115.5C 627.049,111.876 624.383,108.376 621.5,105C 625.466,100.033 629.799,95.3658 634.5,91C 627.946,75.341 621.779,59.5077 616,43.5C 607.597,31.6412 610.597,26.6412 625,28.5C 631.54,28.5215 638.04,29.0215 644.5,30C 645.252,30.6708 645.586,31.5041 645.5,32.5 Z"/></g>
<g><path style="opacity:0.46" fill="#797979" d="M 677.5,33.5 C 676.733,32.828 676.066,31.9947 675.5,31C 668.508,30.5004 661.508,30.3337 654.5,30.5C 654.771,32.3797 654.104,33.713 652.5,34.5C 652.5,32.5 652.5,30.5 652.5,28.5C 660.833,28.5 669.167,28.5 677.5,28.5C 677.5,30.1667 677.5,31.8333 677.5,33.5 Z"/></g>
<g><path style="opacity:0.442" fill="#9e9e9e" d="M 561.5,32.5 C 562.205,35.2281 562.872,38.0614 563.5,41C 563.272,41.3988 562.938,41.5654 562.5,41.5C 560.22,38.8544 559.887,35.8544 561.5,32.5 Z"/></g>
<g><path style="opacity:0.68" fill="#7e7e7e" d="M 645.5,32.5 C 645.5,35.1667 645.5,37.8333 645.5,40.5C 644.167,40.5 642.833,40.5 641.5,40.5C 642.655,37.6717 643.989,35.0051 645.5,32.5 Z"/></g>
<g><path style="opacity:0.539" fill="#949494" d="M 553.5,41.5 C 554.301,43.0418 554.634,44.7085 554.5,46.5C 552.403,45.1214 552.07,43.4547 553.5,41.5 Z"/></g>
<g><path style="opacity:0.509" fill="#8e8e8e" d="M 607.5,41.5 C 607.5,43.5 607.5,45.5 607.5,47.5C 602.833,47.5 598.167,47.5 593.5,47.5C 597.183,45.7501 601.183,45.0834 605.5,45.5C 605.229,43.6203 605.896,42.287 607.5,41.5 Z"/></g>
<g><path style="opacity:0.925" fill="#b2b2b2" d="M 463.5,46.5 C 460.274,44.1229 456.607,43.1229 452.5,43.5C 456.407,40.8308 460.24,41.1641 464,44.5C 464.692,45.4368 464.525,46.1034 463.5,46.5 Z"/></g>
<g><path style="opacity:0.751" fill="#a6a6a6" d="M 485.5,52.5 C 486.414,55.728 486.747,59.0613 486.5,62.5C 484.833,62.5 483.167,62.5 481.5,62.5C 483.742,59.5305 485.076,56.1971 485.5,52.5 Z"/></g>
<g><path style="opacity:0.525" fill="#969696" d="M 217.5,77.5 C 218.959,77.4326 220.292,77.7659 221.5,78.5C 220.399,79.5983 219.066,79.765 217.5,79C 216.262,78.31 216.262,77.81 217.5,77.5 Z"/></g>
<g><path style="opacity:1" fill="#ababab" d="M 329.5,75.5 C 330.833,76.1667 331.833,77.1667 332.5,78.5C 330.732,79.5075 329.399,78.8408 328.5,76.5C 328.624,75.8933 328.957,75.56 329.5,75.5 Z"/></g>
<g><path style="opacity:0.855" fill="#9f9f9f" d="M 516.5,72.5 C 519.456,77.1654 523.789,79.1654 529.5,78.5C 527.545,80.3258 525.212,80.8258 522.5,80C 520.04,78.5422 517.873,76.7089 516,74.5C 515.308,73.5632 515.475,72.8966 516.5,72.5 Z"/></g>
<g><path style="opacity:0.598" fill="#888888" d="M 269.5,79.5 C 268.404,82.0316 267.071,84.3649 265.5,86.5C 265.5,84.1667 265.5,81.8333 265.5,79.5C 266.833,79.5 268.167,79.5 269.5,79.5 Z"/></g>
<g><path style="opacity:0.63" fill="#8b8b8b" d="M 371.5,81.5 C 373.265,84.1226 373.932,87.1226 373.5,90.5C 372.167,90.5 370.833,90.5 369.5,90.5C 371.126,87.7543 371.793,84.7543 371.5,81.5 Z"/></g>
<g><path style="opacity:0.941" fill="#e0a7de" d="M 124.5,86.5 C 126.62,87.4033 126.954,88.7367 125.5,90.5C 125.167,90.5 124.833,90.5 124.5,90.5C 124.167,89.8333 123.833,89.1667 123.5,88.5C 123.833,87.8333 124.167,87.1667 124.5,86.5 Z"/></g>
<g><path style="opacity:0.676" fill="#999999" d="M 322.5,93.5 C 320.142,93.7475 318.142,93.0808 316.5,91.5C 316.783,90.7109 317.283,90.0442 318,89.5C 319.992,90.3281 321.492,91.6614 322.5,93.5 Z"/></g>
<g><path style="opacity:0.37" fill="#8a8a8a" d="M 257.5,90.5 C 256.313,92.9754 254.313,93.9754 251.5,93.5C 253.033,91.7549 255.033,90.7549 257.5,90.5 Z"/></g>
<g><path style="opacity:0.596" fill="#ffd7a2" d="M 32.5,100.5 C 34.9726,100.088 36.3059,101.088 36.5,103.5C 34.5956,103.262 33.2623,102.262 32.5,100.5 Z"/></g>
</svg>
