<?xml version="1.0" encoding="UTF-8"?>
<!DOCTYPE svg PUBLIC "-//W3C//DTD SVG 1.1//EN" "http://www.w3.org/Graphics/SVG/1.1/DTD/svg11.dtd">
<svg xmlns="http://www.w3.org/2000/svg" version="1.1" width="704px" height="116px" style="shape-rendering:geometricPrecision; text-rendering:geometricPrecision; image-rendering:optimizeQuality; fill-rule:evenodd; clip-rule:evenodd" xmlns:xlink="http://www.w3.org/1999/xlink">
<g><path style="opacity:1" fill="#f7f7f7" d="M 266.5,87.5 C 267.105,85.0259 268.105,82.6926 269.5,80.5C 271.086,79.8519 272.753,79.3519 274.5,79C 275.116,77.5998 275.449,76.0998 275.5,74.5C 274.333,63.5002 273.167,52.5002 272,41.5C 267.458,58.2882 262.625,74.9549 257.5,91.5C 255.374,92.0482 253.374,92.7148 251.5,93.5C 246.184,94.226 240.851,94.8927 235.5,95.5C 230.31,77.7605 224.81,60.0939 219,42.5C 217.442,54.5461 216.942,66.5461 217.5,78.5C 218.705,80.1376 220.038,80.4709 221.5,79.5C 222.721,80.0283 223.887,80.695 225,81.5C 225.062,85.1483 224.895,88.815 224.5,92.5C 214.167,92.5 203.833,92.5 193.5,92.5C 192.717,88.8542 192.55,85.1875 193,81.5C 194.667,80.1667 196.333,78.8333 198,77.5C 200.03,63.4569 202.196,49.4569 204.5,35.5C 205.634,33.0336 205.801,30.367 205,27.5C 204.31,26.2617 203.81,26.2617 203.5,27.5C 201.219,26.3918 199.052,25.0585 197,23.5C 196.501,19.5138 196.334,15.5138 196.5,11.5C 208.5,11.5 220.5,11.5 232.5,11.5C 237.841,29.8599 243.341,48.1933 249,66.5C 254.501,48.4943 260.001,30.4943 265.5,12.5C 276.48,11.5012 287.48,11.1679 298.5,11.5C 298.586,15.8566 298.92,20.19 299.5,24.5C 297.146,24.838 294.813,25.338 292.5,26C 291.978,26.5613 291.645,27.228 291.5,28C 293.852,43.1316 296.019,58.2983 298,73.5C 299.173,77.3372 301.173,80.6706 304,83.5C 304.667,86.1667 304.667,88.8333 304,91.5C 291.909,92.6544 279.742,92.8211 267.5,92C 266.62,90.6439 266.286,89.1439 266.5,87.5 Z"/></g>
<g><path style="opacity:1" fill="#f6f6f6" d="M 395.5,14.5 C 398.064,14.9787 400.564,15.6453 403,16.5C 403.499,20.8206 403.666,25.1539 403.5,29.5C 410.167,29.5 416.833,29.5 423.5,29.5C 423.803,34.43 423.469,39.2633 422.5,44C 416.175,44.4995 409.842,44.6662 403.5,44.5C 403.334,54.8387 403.5,65.172 404,75.5C 404.75,76.1258 405.584,76.6258 406.5,77C 411.551,77.4916 416.551,77.4916 421.5,77C 422.286,80.4359 422.953,83.9359 423.5,87.5C 423.392,88.4419 423.059,89.2753 422.5,90C 412.052,94.8715 401.385,95.5382 390.5,92C 384.63,87.7575 381.796,81.9241 382,74.5C 381.5,64.5056 381.334,54.5056 381.5,44.5C 378.833,44.5 376.167,44.5 373.5,44.5C 373.335,41.1501 373.502,37.8168 374,34.5C 381.364,27.9671 388.53,21.3004 395.5,14.5 Z"/></g>
<g><path style="opacity:1" fill="#ffa525" d="M 76.5,89.5 C 69.9317,107.426 57.5983,112.926 39.5,106C 38.6195,105.292 37.9528,104.458 37.5,103.5C 36.7377,101.738 35.4044,100.738 33.5,100.5C 30.2322,96.8887 28.3989,92.5553 28,87.5C 27.6667,73.1667 27.3333,58.8333 27,44.5C 22.47,37.4117 17.1367,36.745 11,42.5C 12.4099,32.7411 17.9099,26.2411 27.5,23C 42.5406,20.4347 52.7073,26.268 58,40.5C 58.0451,56.5668 58.7118,72.5668 60,88.5C 61.6887,91.2692 64.1887,92.9358 67.5,93.5C 70.6649,92.415 73.6649,91.0817 76.5,89.5 Z"/></g>
<g><path style="opacity:1" fill="#ff1c6e" d="M 107.5,42.5 C 107.333,57.5037 107.5,72.5037 108,87.5C 112.674,94.5396 118.174,95.2063 124.5,89.5C 121.91,102.252 114.077,108.585 101,108.5C 87.9971,108.324 79.8304,101.99 76.5,89.5C 76.6666,74.8295 76.4999,60.1629 76,45.5C 73.8967,39.5306 69.73,37.3639 63.5,39C 62,39.8333 60.8333,41 60,42.5C 63.099,27.1143 72.599,20.6143 88.5,23C 98.4297,26.0951 104.763,32.5951 107.5,42.5 Z"/></g>
<g><path style="opacity:1" fill="#a72dbc" d="M 126.5,90.5 C 126.768,88.901 126.434,87.5676 125.5,86.5C 125.667,72.8293 125.5,59.1626 125,45.5C 122.86,39.5128 118.693,37.3461 112.5,39C 111.211,40.8022 109.544,41.9688 107.5,42.5C 111.794,27.3929 121.794,20.8929 137.5,23C 145.841,25.3407 151.674,30.5074 155,38.5C 156.273,54.7802 156.94,71.1136 157,87.5C 161.924,95.0878 167.257,95.4212 173,88.5C 172.488,96.9944 168.322,103.161 160.5,107C 148.577,111.057 138.411,108.557 130,99.5C 128.259,96.6907 127.092,93.6907 126.5,90.5 Z"/></g>
<g><path style="opacity:1" fill="#9c9c9c" d="M 204.5,35.5 C 204.721,32.7212 204.388,30.0545 203.5,27.5C 203.81,26.2617 204.31,26.2617 205,27.5C 205.801,30.367 205.634,33.0336 204.5,35.5 Z"/></g>
<g><path style="opacity:1" fill="#f4f4f4" d="M 371.5,81.5 C 373.078,84.7773 372.745,87.7773 370.5,90.5C 364.02,92.6948 357.353,93.5281 350.5,93C 349.91,91.4905 349.244,89.9905 348.5,88.5C 340.572,93.2419 332.239,94.9085 323.5,93.5C 321.709,92.6087 319.876,91.6087 318,90.5C 317.601,90.7284 317.435,91.0618 317.5,91.5C 310.827,86.9326 308.661,80.5993 311,72.5C 313.962,66.2076 318.795,62.0409 325.5,60C 332.697,57.9481 340.03,56.7815 347.5,56.5C 347.845,51.6725 346.178,47.8392 342.5,45C 338.129,44.1725 333.795,44.3391 329.5,45.5C 328.211,48.5802 326.545,51.4136 324.5,54C 321.406,54.6518 318.406,54.3185 315.5,53C 313.805,46.3036 312.805,39.4702 312.5,32.5C 325.258,28.8586 338.258,27.692 351.5,29C 359.667,30.5 364.5,35.3333 366,43.5C 366.333,54.8333 366.667,66.1667 367,77.5C 368.397,79.0703 369.897,80.4036 371.5,81.5 Z M 332.5,79.5 C 331.833,78.1667 330.833,77.1667 329.5,76.5C 329.244,74.2075 329.577,72.0408 330.5,70C 336.101,68.7832 341.768,68.2832 347.5,68.5C 347.5,71.5 347.5,74.5 347.5,77.5C 342.672,79.1508 337.672,79.8175 332.5,79.5 Z"/></g>
<g><path style="opacity:1" fill="#f5f5f5" d="M 485.5,52.5 C 485.5,55.5 485.5,58.5 485.5,61.5C 484.209,61.2627 483.209,61.596 482.5,62.5C 471.761,64.4021 461.094,66.7354 450.5,69.5C 454.619,77.1317 460.953,79.6317 469.5,77C 473.405,75.6409 477.405,74.8076 481.5,74.5C 481.844,78.0532 482.511,81.5532 483.5,85C 482.339,87.5926 480.339,89.2592 477.5,90C 464.29,96.2922 451.29,95.9588 438.5,89C 429.854,79.9424 426.354,69.1091 428,56.5C 433.375,31.8878 448.208,23.3878 472.5,31C 480.543,35.9186 484.876,43.0852 485.5,52.5 Z M 452.5,43.5 C 456.991,42.8851 460.991,43.8851 464.5,46.5C 465.666,48.166 465.666,49.8327 464.5,51.5C 459.6,53.2449 454.6,54.5782 449.5,55.5C 449.336,52.8127 449.503,50.146 450,47.5C 450.2,45.6803 451.034,44.347 452.5,43.5 Z"/></g>
<g><path style="opacity:1" fill="#f5f5f5" d="M 553.5,42.5 C 552.529,43.9621 552.862,45.2954 554.5,46.5C 558.525,58.7995 557.359,70.7995 551,82.5C 539.239,94.2302 525.405,97.3969 509.5,92C 501.491,88.8237 496.658,82.9904 495,74.5C 492.034,61.6298 494.034,49.6298 501,38.5C 510.261,29.0849 521.428,25.9182 534.5,29C 543.215,30.2245 549.549,34.7245 553.5,42.5 Z M 530.5,79.5 C 526.633,79.7583 522.966,79.0916 519.5,77.5C 519.5,76.8333 519.167,76.5 518.5,76.5C 518.573,74.9731 517.906,73.9731 516.5,73.5C 514.137,64.2111 513.97,54.8778 516,45.5C 526.377,40.8568 532.711,44.1901 535,55.5C 535.801,62.8892 535.467,70.2225 534,77.5C 532.698,78.0848 531.531,78.7515 530.5,79.5 Z"/></g>
<g><path style="opacity:1" fill="#7c7c7c" d="M 600.5,28.5 C 603.167,28.5 605.833,28.5 608.5,28.5C 608.5,31.5 608.5,34.5 608.5,37.5C 607.527,35.0521 607.194,32.3854 607.5,29.5C 604.941,29.8016 602.607,29.4682 600.5,28.5 Z"/></g>
<g><path style="opacity:1" fill="#fafafa" d="M 582.5,28.5 C 584.028,29.3092 585.694,29.9759 587.5,30.5C 588.41,32.0188 589.243,33.6854 590,35.5C 593.271,32.7843 596.771,30.451 600.5,28.5C 602.607,29.4682 604.941,29.8016 607.5,29.5C 607.194,32.3854 607.527,35.0521 608.5,37.5C 608.567,38.9587 608.234,40.2921 607.5,41.5C 606.549,42.9187 606.216,44.5853 606.5,46.5C 601.968,46.1818 597.634,46.5151 593.5,47.5C 592.504,47.4142 591.671,47.7476 591,48.5C 590.333,58.5 590.333,68.5 591,78.5C 593.498,80.417 596.165,82.0836 599,83.5C 599.498,86.4816 599.665,89.4816 599.5,92.5C 587.167,92.5 574.833,92.5 562.5,92.5C 561.838,88.5341 561.505,84.5341 561.5,80.5C 563.827,80.3354 565.993,79.6687 568,78.5C 568.832,67.4849 568.666,56.4849 567.5,45.5C 565.739,44.9649 564.406,43.9649 563.5,42.5C 562.586,39.272 562.253,35.9387 562.5,32.5C 569.071,30.7859 575.737,29.4526 582.5,28.5 Z"/></g>
<g><path style="opacity:1" fill="#818181" d="M 582.5,28.5 C 584.781,28.0773 586.448,28.744 587.5,30.5C 585.694,29.9759 584.028,29.3092 582.5,28.5 Z"/></g>
<g><path style="opacity:1" fill="#565656" d="M 677.5,33.5 C 676.596,32.791 676.263,31.791 676.5,30.5C 669.167,30.5 661.833,30.5 654.5,30.5C 654.784,32.4147 654.451,34.0813 653.5,35.5C 653.5,33.5 653.5,31.5 653.5,29.5C 661.5,29.5 669.5,29.5 677.5,29.5C 677.5,30.8333 677.5,32.1667 677.5,33.5 Z"/></g>
<g><path style="opacity:1" fill="#f5f5f5" d="M 645.5,32.5 C 644.935,35.305 643.935,37.9717 642.5,40.5C 641.791,41.404 640.791,41.7373 639.5,41.5C 642.094,50.9492 645.094,60.2826 648.5,69.5C 652.164,60.8431 655.831,52.1764 659.5,43.5C 657.755,41.5413 655.589,40.208 653,39.5C 652.421,38.0715 652.588,36.7382 653.5,35.5C 654.451,34.0813 654.784,32.4147 654.5,30.5C 661.833,30.5 669.167,30.5 676.5,30.5C 676.263,31.791 676.596,32.791 677.5,33.5C 678.866,37.6571 678.366,41.6571 676,45.5C 665.538,69.4123 654.038,92.7456 641.5,115.5C 637.833,115.5 634.167,115.5 630.5,115.5C 628.237,111.897 625.57,108.564 622.5,105.5C 626.833,100.833 631.167,96.1667 635.5,91.5C 629.056,75.6109 622.889,59.6109 617,43.5C 615.667,41.5 614.333,39.5 613,37.5C 612.57,34.8078 612.737,32.1411 613.5,29.5C 623.855,29.1681 634.188,29.5014 644.5,30.5C 644.863,31.1835 645.196,31.8501 645.5,32.5 Z"/></g>
<g><path style="opacity:1" fill="#939393" d="M 562.5,32.5 C 562.253,35.9387 562.586,39.272 563.5,42.5C 562.223,41.3064 561.556,39.6397 561.5,37.5C 561.507,35.6307 561.84,33.964 562.5,32.5 Z"/></g>
<g><path style="opacity:1" fill="#727272" d="M 645.5,32.5 C 645.5,35.1667 645.5,37.8333 645.5,40.5C 644.5,40.5 643.5,40.5 642.5,40.5C 643.935,37.9717 644.935,35.305 645.5,32.5 Z"/></g>
<g><path style="opacity:1" fill="#919191" d="M 452.5,43.5 C 457.259,41.6823 461.593,42.5157 465.5,46C 465.272,46.3988 464.938,46.5654 464.5,46.5C 460.991,43.8851 456.991,42.8851 452.5,43.5 Z"/></g>
<g><path style="opacity:1" fill="#7d7d7d" d="M 553.5,42.5 C 554.234,43.7079 554.567,45.0413 554.5,46.5C 552.862,45.2954 552.529,43.9621 553.5,42.5 Z"/></g>
<g><path style="opacity:1" fill="#818181" d="M 607.5,41.5 C 607.5,43.5 607.5,45.5 607.5,47.5C 602.833,47.5 598.167,47.5 593.5,47.5C 597.634,46.5151 601.968,46.1818 606.5,46.5C 606.216,44.5853 606.549,42.9187 607.5,41.5 Z"/></g>
<g><path style="opacity:1" fill="#8f8f8f" d="M 485.5,52.5 C 486.479,55.6248 486.813,58.9581 486.5,62.5C 485.167,62.5 483.833,62.5 482.5,62.5C 483.209,61.596 484.209,61.2627 485.5,61.5C 485.5,58.5 485.5,55.5 485.5,52.5 Z"/></g>
<g><path style="opacity:1" fill="#737373" d="M 516.5,73.5 C 517.906,73.9731 518.573,74.9731 518.5,76.5C 517.094,76.0269 516.427,75.0269 516.5,73.5 Z"/></g>
<g><path style="opacity:1" fill="#757575" d="M 329.5,76.5 C 330.833,77.1667 331.833,78.1667 332.5,79.5C 330.5,79.5 329.5,78.5 329.5,76.5 Z"/></g>
<g><path style="opacity:1" fill="#7d7d7d" d="M 217.5,78.5 C 218.959,78.4326 220.292,78.7659 221.5,79.5C 220.038,80.4709 218.705,80.1376 217.5,78.5 Z"/></g>
<g><path style="opacity:1" fill="#7e7e7e" d="M 519.5,77.5 C 522.966,79.0916 526.633,79.7583 530.5,79.5C 528.034,80.6341 525.367,80.8007 522.5,80C 521.058,79.6232 520.058,78.7899 519.5,77.5 Z"/></g>
<g><path style="opacity:1" fill="#7b7b7b" d="M 269.5,80.5 C 268.105,82.6926 267.105,85.0259 266.5,87.5C 266.5,85.1667 266.5,82.8333 266.5,80.5C 267.5,80.5 268.5,80.5 269.5,80.5 Z"/></g>
<g><path style="opacity:1" fill="#808080" d="M 371.5,81.5 C 373.388,83.9878 374.055,86.9878 373.5,90.5C 372.5,90.5 371.5,90.5 370.5,90.5C 372.745,87.7773 373.078,84.7773 371.5,81.5 Z"/></g>
<g><path style="opacity:1" fill="#e4b6e7" d="M 125.5,86.5 C 126.434,87.5676 126.768,88.901 126.5,90.5C 125.833,90.1667 125.167,89.8333 124.5,89.5C 125.11,88.609 125.443,87.609 125.5,86.5 Z"/></g>
<g><path style="opacity:1" fill="#929292" d="M 323.5,93.5 C 321.102,93.7406 319.102,93.0739 317.5,91.5C 317.435,91.0618 317.601,90.7284 318,90.5C 319.876,91.6087 321.709,92.6087 323.5,93.5 Z"/></g>
<g><path style="opacity:1" fill="#7c7c7c" d="M 257.5,91.5 C 256.082,93.3079 254.082,93.9746 251.5,93.5C 253.374,92.7148 255.374,92.0482 257.5,91.5 Z"/></g>
<g><path style="opacity:1" fill="#ffd79e" d="M 33.5,100.5 C 35.4044,100.738 36.7377,101.738 37.5,103.5C 35.5956,103.262 34.2623,102.262 33.5,100.5 Z"/></g>
</svg>
