<?xml version="1.0" encoding="UTF-8"?>
<!DOCTYPE svg PUBLIC "-//W3C//DTD SVG 1.1//EN" "http://www.w3.org/Graphics/SVG/1.1/DTD/svg11.dtd">
<svg xmlns="http://www.w3.org/2000/svg" version="1.1" width="500px" height="500px" style="shape-rendering:geometricPrecision; text-rendering:geometricPrecision; image-rendering:optimizeQuality; fill-rule:evenodd; clip-rule:evenodd" xmlns:xlink="http://www.w3.org/1999/xlink">
<g><path style="opacity:1" fill="#98a0af" d="M 499.5,224.5 C 499.5,244.833 499.5,265.167 499.5,285.5C 485.131,374.345 438.131,439.512 358.5,481C 346.407,486.364 333.907,490.531 321,493.5C 314.986,493.149 310.986,490.149 309,484.5C 308.568,454.828 307.901,425.161 307,395.5C 304.603,383.872 299.436,373.706 291.5,365C 375.405,354.759 412.905,307.592 404,223.5C 400.652,206.472 393.319,191.472 382,178.5C 381.224,171.7 381.891,165.033 384,158.5C 386.007,142.312 384.007,126.646 378,111.5C 368.985,109.814 360.152,110.647 351.5,114C 336.96,120.52 322.793,127.687 309,135.5C 268.333,124.833 227.667,124.833 187,135.5C 169.003,124.419 149.836,115.919 129.5,110C 125.406,109.233 121.406,109.566 117.5,111C 109.948,131.687 109.615,152.52 116.5,173.5C 87.4799,211.475 81.9799,252.808 100,297.5C 111.739,324.906 131.572,343.74 159.5,354C 174.42,358.282 189.42,362.116 204.5,365.5C 195.32,375.859 189.32,387.859 186.5,401.5C 160.399,412.201 137.566,407.535 118,387.5C 109.114,368.606 94.4472,357.273 74,353.5C 65.145,354.669 64.3117,357.836 71.5,363C 78.8799,367.373 85.3799,372.873 91,379.5C 97.1294,389.426 102.463,399.759 107,410.5C 123.005,433.07 144.839,442.237 172.5,438C 177.501,437.1 182.501,436.266 187.5,435.5C 187.667,452.17 187.5,468.837 187,485.5C 185.016,491.147 181.016,494.147 175,494.5C 95.0454,469.215 40.3787,417.215 11,338.5C 6.51508,324.549 2.68175,310.549 -0.5,296.5C -0.5,268.5 -0.5,240.5 -0.5,212.5C 18.7865,119.381 72.4532,54.8813 160.5,19C 237.611,-7.47541 311.277,-0.142076 381.5,41C 448.599,83.9683 487.932,145.135 499.5,224.5 Z"/></g>
</svg>
