<?xml version="1.0" encoding="UTF-8"?>
<!DOCTYPE svg PUBLIC "-//W3C//DTD SVG 1.1//EN" "http://www.w3.org/Graphics/SVG/1.1/DTD/svg11.dtd">
<svg xmlns="http://www.w3.org/2000/svg" version="1.1" width="500px" height="500px" style="shape-rendering:geometricPrecision; text-rendering:geometricPrecision; image-rendering:optimizeQuality; fill-rule:evenodd; clip-rule:evenodd" xmlns:xlink="http://www.w3.org/1999/xlink">
<g><path style="opacity:1" fill="#98a1af" d="M 44.5,-0.5 C 181.167,-0.5 317.833,-0.5 454.5,-0.5C 478.5,5.5 493.5,20.5 499.5,44.5C 499.5,181.167 499.5,317.833 499.5,454.5C 493.5,478.5 478.5,493.5 454.5,499.5C 317.833,499.5 181.167,499.5 44.5,499.5C 20.5,493.5 5.5,478.5 -0.5,454.5C -0.5,317.833 -0.5,181.167 -0.5,44.5C 5.5,20.5 20.5,5.5 44.5,-0.5 Z M 105.5,69.5 C 131.969,68.1527 148.802,80.1527 156,105.5C 158.104,133.385 145.604,150.552 118.5,157C 96.2824,158.314 80.7824,148.814 72,128.5C 65.2531,98.4599 76.4198,78.7932 105.5,69.5 Z M 429.5,265.5 C 429.5,320.167 429.5,374.833 429.5,429.5C 405.167,429.5 380.833,429.5 356.5,429.5C 356.832,384.664 356.499,339.997 355.5,295.5C 353.493,257.99 334.159,243.49 297.5,252C 279.866,260.078 270.866,273.911 270.5,293.5C 269.501,338.664 269.168,383.997 269.5,429.5C 245.833,429.5 222.167,429.5 198.5,429.5C 198.5,349.5 198.5,269.5 198.5,189.5C 222.167,189.5 245.833,189.5 269.5,189.5C 269.333,200.172 269.5,210.839 270,221.5C 270.717,220.956 271.217,220.289 271.5,219.5C 296.89,186.716 329.89,175.55 370.5,186C 401.637,196.041 420.47,217.207 427,249.5C 427.835,254.855 428.669,260.189 429.5,265.5 Z M 150.5,189.5 C 150.5,269.5 150.5,349.5 150.5,429.5C 125.833,429.5 101.167,429.5 76.5,429.5C 76.5,349.5 76.5,269.5 76.5,189.5C 101.167,189.5 125.833,189.5 150.5,189.5 Z"/></g>
<g><path style="opacity:1" fill="#56a7d0" d="M 150.5,189.5 C 151.499,269.665 151.833,349.998 151.5,430.5C 126.167,430.5 100.833,430.5 75.5,430.5C 75.5,349.833 75.5,269.167 75.5,188.5C 100.672,188.169 125.672,188.502 150.5,189.5 Z M 150.5,189.5 C 125.833,189.5 101.167,189.5 76.5,189.5C 76.5,269.5 76.5,349.5 76.5,429.5C 101.167,429.5 125.833,429.5 150.5,429.5C 150.5,349.5 150.5,269.5 150.5,189.5 Z"/></g>
<g><path style="opacity:1" fill="#5cacd3" d="M 269.5,189.5 C 270.167,199.5 270.833,209.5 271.5,219.5C 271.217,220.289 270.717,220.956 270,221.5C 269.5,210.839 269.333,200.172 269.5,189.5 Z"/></g>
<g><path style="opacity:1" fill="#91c6e1" d="M 429.5,265.5 C 430.499,320.331 430.832,375.331 430.5,430.5C 405.5,430.5 380.5,430.5 355.5,430.5C 355.5,385.5 355.5,340.5 355.5,295.5C 356.499,339.997 356.832,384.664 356.5,429.5C 380.833,429.5 405.167,429.5 429.5,429.5C 429.5,374.833 429.5,320.167 429.5,265.5 Z"/></g>
<g><path style="opacity:1" fill="#55a6d0" d="M 198.5,189.5 C 198.5,269.5 198.5,349.5 198.5,429.5C 222.167,429.5 245.833,429.5 269.5,429.5C 269.168,383.997 269.501,338.664 270.5,293.5C 270.5,339.167 270.5,384.833 270.5,430.5C 246.167,430.5 221.833,430.5 197.5,430.5C 197.167,349.998 197.501,269.665 198.5,189.5 Z"/></g>
</svg>
