<?xml version="1.0" encoding="UTF-8"?>
<!DOCTYPE svg PUBLIC "-//W3C//DTD SVG 1.1//EN" "http://www.w3.org/Graphics/SVG/1.1/DTD/svg11.dtd">
<svg xmlns="http://www.w3.org/2000/svg" version="1.1" width="800px" height="800px" style="shape-rendering:geometricPrecision; text-rendering:geometricPrecision; image-rendering:optimizeQuality; fill-rule:evenodd; clip-rule:evenodd" xmlns:xlink="http://www.w3.org/1999/xlink">
<g><path style="opacity:1" fill="#98a0af" d="M 54.5,153.5 C 152.167,153.5 249.833,153.5 347.5,153.5C 347.5,230.833 347.5,308.167 347.5,385.5C 335.836,386.204 324.169,386.87 312.5,387.5C 312.023,396.851 311.356,406.184 310.5,415.5C 322.815,416.315 335.148,416.649 347.5,416.5C 347.5,428.833 347.5,441.167 347.5,453.5C 335.5,453.5 323.5,453.5 311.5,453.5C 311.5,464.833 311.5,476.167 311.5,487.5C 298.167,487.5 284.833,487.5 271.5,487.5C 271.5,475.167 271.5,462.833 271.5,450.5C 283.833,450.5 296.167,450.5 308.5,450.5C 308.5,440.167 308.5,429.833 308.5,419.5C 296.167,419.5 283.833,419.5 271.5,419.5C 271.796,407.832 272.13,396.165 272.5,384.5C 284.198,384.276 295.864,383.609 307.5,382.5C 308.266,373.521 308.599,364.521 308.5,355.5C 296.502,355.097 284.502,354.763 272.5,354.5C 272.467,313.164 272.133,271.83 271.5,230.5C 258.167,230.5 244.833,230.5 231.5,230.5C 231.5,316.167 231.5,401.833 231.5,487.5C 212.167,487.5 192.833,487.5 173.5,487.5C 173.5,401.833 173.5,316.167 173.5,230.5C 159.167,230.5 144.833,230.5 130.5,230.5C 130.5,272.167 130.5,313.833 130.5,355.5C 118.167,355.5 105.833,355.5 93.5,355.5C 93.5,364.833 93.5,374.167 93.5,383.5C 105.833,383.5 118.167,383.5 130.5,383.5C 130.5,395.5 130.5,407.5 130.5,419.5C 118.167,419.5 105.833,419.5 93.5,419.5C 93.5,429.833 93.5,440.167 93.5,450.5C 105.833,450.5 118.167,450.5 130.5,450.5C 130.5,462.833 130.5,475.167 130.5,487.5C 117.167,487.5 103.833,487.5 90.5,487.5C 90.5,476.167 90.5,464.833 90.5,453.5C 78.5,453.5 66.5,453.5 54.5,453.5C 54.5,441.167 54.5,428.833 54.5,416.5C 66.5,416.5 78.5,416.5 90.5,416.5C 90.5,406.5 90.5,396.5 90.5,386.5C 78.5,386.5 66.5,386.5 54.5,386.5C 54.5,308.833 54.5,231.167 54.5,153.5 Z"/></g>
<g><path style="opacity:1" fill="#98a1ae" d="M 387.5,153.5 C 413.167,153.5 438.833,153.5 464.5,153.5C 464.5,264.833 464.5,376.167 464.5,487.5C 438.833,487.5 413.167,487.5 387.5,487.5C 387.5,376.167 387.5,264.833 387.5,153.5 Z"/></g>
<g><path style="opacity:1" fill="#98a0ae" d="M 504.5,153.5 C 583.833,153.5 663.167,153.5 742.5,153.5C 742.149,178.5 741.816,203.5 741.5,228.5C 714.496,229.05 687.496,229.717 660.5,230.5C 660.5,272.167 660.5,313.833 660.5,355.5C 648.167,355.5 635.833,355.5 623.5,355.5C 623.833,364.167 624.167,372.833 624.5,381.5C 636.492,382.284 648.492,382.951 660.5,383.5C 660.5,395.5 660.5,407.5 660.5,419.5C 648.497,420.132 636.497,420.798 624.5,421.5C 624.5,430.833 624.5,440.167 624.5,449.5C 636.505,449.7 648.505,450.034 660.5,450.5C 660.5,462.833 660.5,475.167 660.5,487.5C 647.167,487.5 633.833,487.5 620.5,487.5C 620.5,476.167 620.5,464.833 620.5,453.5C 609.167,453.5 597.833,453.5 586.5,453.5C 586.5,441.167 586.5,428.833 586.5,416.5C 597.833,416.5 609.167,416.5 620.5,416.5C 620.5,406.5 620.5,396.5 620.5,386.5C 608.833,386.5 597.167,386.5 585.5,386.5C 585.833,334.5 586.167,282.5 586.5,230.5C 559.167,230.5 531.833,230.5 504.5,230.5C 504.5,204.833 504.5,179.167 504.5,153.5 Z"/></g>
<g><path style="opacity:1" fill="#98a0ae" d="M 213.5,520.5 C 224.153,520.006 227.987,525.006 225,535.5C 220.697,540.424 216.03,540.758 211,536.5C 210.333,532.167 210.333,527.833 211,523.5C 212.045,522.627 212.878,521.627 213.5,520.5 Z"/></g>
<g><path style="opacity:1" fill="#98a1ae" d="M 121.5,527.5 C 127.5,527.5 133.5,527.5 139.5,527.5C 139.5,561.167 139.5,594.833 139.5,628.5C 156.881,628.072 174.214,628.572 191.5,630C 195.048,633.137 195.381,636.637 192.5,640.5C 187.294,642.02 181.961,642.853 176.5,643C 158.17,643.5 139.836,643.667 121.5,643.5C 121.5,604.833 121.5,566.167 121.5,527.5 Z"/></g>
<g><path style="opacity:1" fill="#98a0af" d="M 271.5,551.5 C 292.227,548.854 306.561,557.02 314.5,576C 312.959,581.871 309.292,583.871 303.5,582C 301.754,581.529 300.087,580.862 298.5,580C 295.833,576.667 293.167,573.333 290.5,570C 280.583,564.851 271.75,566.351 264,574.5C 258,589.167 258,603.833 264,618.5C 269.722,630.165 278.222,632.665 289.5,626C 293.535,622.3 297.202,618.3 300.5,614C 304.558,613.233 308.558,613.4 312.5,614.5C 314.174,620.981 312.674,626.648 308,631.5C 296.761,643.02 283.261,646.853 267.5,643C 258.869,640.037 252.369,634.537 248,626.5C 240.711,607.521 240.711,588.521 248,569.5C 253.739,560.574 261.572,554.574 271.5,551.5 Z"/></g>
<g><path style="opacity:0.999" fill="#98a0af" d="M 355.5,551.5 C 379.109,548.975 394.276,558.975 401,581.5C 402.186,588.786 402.686,596.119 402.5,603.5C 382.167,603.5 361.833,603.5 341.5,603.5C 342.6,621.192 351.934,630.026 369.5,630C 377.599,625.616 385.933,621.783 394.5,618.5C 398.283,619.437 399.783,621.771 399,625.5C 397.819,629.363 395.986,632.863 393.5,636C 376.199,643.352 358.533,644.352 340.5,639C 320.372,615.816 318.206,590.982 334,564.5C 339.928,557.96 347.094,553.626 355.5,551.5 Z M 357.5,566.5 C 372.67,564.197 380.837,570.53 382,585.5C 369.666,588.849 357.166,589.349 344.5,587C 342.045,584.336 341.878,581.502 344,578.5C 347.478,573.179 351.978,569.179 357.5,566.5 Z"/></g>
<g><path style="opacity:1" fill="#98a0af" d="M 452.5,551.5 C 469.291,548.638 480.791,554.972 487,570.5C 488.624,592.783 488.957,615.116 488,637.5C 484.968,644.175 480.635,645.175 475,640.5C 474.048,622.177 473.381,603.844 473,585.5C 473.033,573.823 467.366,567.49 456,566.5C 447.075,566.285 441.075,570.285 438,578.5C 436.459,584.746 435.459,591.079 435,597.5C 434.221,610.85 433.221,624.183 432,637.5C 429.092,643.01 425.258,643.843 420.5,640C 419.922,638.189 419.422,636.355 419,634.5C 418.333,610.833 418.333,587.167 419,563.5C 419.934,554.191 424.434,552.024 432.5,557C 433.406,558.699 433.739,560.533 433.5,562.5C 435.308,562.509 436.975,562.009 438.5,561C 442.82,557.192 447.487,554.025 452.5,551.5 Z"/></g>
<g><path style="opacity:1" fill="#98a0af" d="M 617.5,551.5 C 651.866,551.208 666.866,568.208 662.5,602.5C 644.831,602.86 627.165,603.36 609.5,604C 605.818,605.32 604.318,607.82 605,611.5C 609.264,625.043 618.431,631.21 632.5,630C 638.833,626.333 645.167,622.667 651.5,619C 656.032,618.1 658.698,619.934 659.5,624.5C 655.229,635.985 646.895,642.152 634.5,643C 609.378,647.521 593.878,637.355 588,612.5C 585.232,597.786 586.565,583.452 592,569.5C 598.488,560.492 606.988,554.492 617.5,551.5 Z M 619.5,566.5 C 629.087,565.713 637.253,568.713 644,575.5C 645.438,578.821 645.605,582.154 644.5,585.5C 638.92,587.736 633.087,588.736 627,588.5C 620.087,588.322 613.254,587.489 606.5,586C 605.833,585 605.167,584 604.5,583C 605.855,579.788 607.355,576.622 609,573.5C 612.308,570.771 615.808,568.438 619.5,566.5 Z"/></g>
<g><path style="opacity:1" fill="#98a0af" d="M 529.5,552.5 C 546.617,550.26 561.117,555.26 573,567.5C 574.027,571.18 573.194,574.347 570.5,577C 566.764,577.61 563.097,577.277 559.5,576C 549.806,566.661 538.806,564.661 526.5,570C 521.012,574.719 521.346,579.052 527.5,583C 541.328,588.276 554.995,593.943 568.5,600C 571.164,602.669 572.998,605.836 574,609.5C 574.667,615.5 574.667,621.5 574,627.5C 571.921,633.247 568.088,637.414 562.5,640C 547.916,642.909 533.249,643.242 518.5,641C 507.521,637.87 503.021,630.704 505,619.5C 513.861,619.666 521.694,622.833 528.5,629C 537.391,631.343 546.058,630.677 554.5,627C 559.314,622.275 559.647,617.275 555.5,612C 542.007,607.058 528.674,601.725 515.5,596C 504.94,587.635 502.773,577.468 509,565.5C 514.697,559.242 521.53,554.909 529.5,552.5 Z"/></g>
<g><path style="opacity:1" fill="#98a0af" d="M 213.5,554.5 C 219.706,553.178 223.539,555.511 225,561.5C 225.667,586.167 225.667,610.833 225,635.5C 224.294,640.372 221.46,643.039 216.5,643.5C 213.467,642.633 211.634,640.633 211,637.5C 210.333,612.167 210.333,586.833 211,561.5C 211.379,558.97 212.213,556.637 213.5,554.5 Z"/></g>
</svg>
